<mxfile host="app.diagrams.net" modified="2023-06-24T03:58:03.827Z" agent="Mozilla/5.0 (Macintosh; Intel Mac OS X 10_15_7) AppleWebKit/537.36 (KHTML, like Gecko) Chrome/114.0.0.0 Safari/537.36" etag="WZrjBxCtj39EzwDE9V7-" version="21.5.0" type="github">
  <diagram name="Page-1" id="c7558073-3199-34d8-9f00-42111426c3f3">
    <mxGraphModel dx="1841" dy="901" grid="1" gridSize="10" guides="1" tooltips="1" connect="1" arrows="1" fold="1" page="1" pageScale="1" pageWidth="550" pageHeight="580" background="#ffffff" math="1" shadow="0">
      <root>
        <mxCell id="0" />
        <mxCell id="1" parent="0" />
        <mxCell id="kpd2LytfiKgkB2pnJVpS-36" value="&lt;span style=&quot;color: rgba(0, 0, 0, 0); font-family: monospace; font-size: 0px; text-align: start;&quot;&gt;%3CmxGraphModel%3E%3Croot%3E%3CmxCell%20id%3D%220%22%2F%3E%3CmxCell%20id%3D%221%22%20parent%3D%220%22%2F%3E%3CmxCell%20id%3D%222%22%20value%3D%22AcEM%40K%20-%20AcEM%40(K-1)%22%20style%3D%22text%3Bhtml%3D1%3BstrokeColor%3Dnone%3BfillColor%3Dnone%3Balign%3Dcenter%3BverticalAlign%3Dmiddle%3BwhiteSpace%3Dwrap%3Brounded%3D0%3BlabelBorderColor%3D%23FFFFFF%3BstrokeWidth%3D2%3BfontFamily%3DTimes%20New%20Roman%3BfontSize%3D15%3BfontColor%3D%23000000%3B%22%20vertex%3D%221%22%20parent%3D%221%22%3E%3CmxGeometry%20x%3D%22560%22%20y%3D%22130%22%20width%3D%22195%22%20height%3D%2229.12%22%20as%3D%22geometry%22%2F%3E%3C%2FmxCell%3E%3C%2Froot%3E%3C%2FmxGraphModel%3E&lt;/span&gt;" style="text;html=1;strokeColor=none;fillColor=none;align=center;verticalAlign=middle;whiteSpace=wrap;rounded=0;labelBorderColor=#FFFFFF;strokeWidth=2;fontFamily=Times New Roman;fontSize=15;fontColor=#000000;" parent="1" vertex="1">
          <mxGeometry x="256.15" y="20" width="118.53" height="29.12" as="geometry" />
        </mxCell>
        <mxCell id="kpd2LytfiKgkB2pnJVpS-146" style="edgeStyle=orthogonalEdgeStyle;rounded=0;orthogonalLoop=1;jettySize=auto;html=1;exitX=0.5;exitY=0;exitDx=0;exitDy=0;entryX=0.475;entryY=1.026;entryDx=0;entryDy=0;entryPerimeter=0;fontFamily=Times New Roman;fontSize=12;fontColor=#000000;dashed=1;dashPattern=1 1;" parent="1" source="kpd2LytfiKgkB2pnJVpS-97" target="kpd2LytfiKgkB2pnJVpS-111" edge="1">
          <mxGeometry relative="1" as="geometry" />
        </mxCell>
        <mxCell id="kpd2LytfiKgkB2pnJVpS-147" style="edgeStyle=orthogonalEdgeStyle;rounded=0;orthogonalLoop=1;jettySize=auto;html=1;exitX=0.5;exitY=0;exitDx=0;exitDy=0;entryX=0.476;entryY=1.019;entryDx=0;entryDy=0;entryPerimeter=0;fontFamily=Times New Roman;fontSize=12;fontColor=#000000;dashed=1;dashPattern=1 4;" parent="1" source="kpd2LytfiKgkB2pnJVpS-101" target="kpd2LytfiKgkB2pnJVpS-111" edge="1">
          <mxGeometry relative="1" as="geometry" />
        </mxCell>
        <mxCell id="kpd2LytfiKgkB2pnJVpS-93" value="0" style="rounded=1;whiteSpace=wrap;html=1;strokeWidth=2;fontFamily=Times New Roman;fontSize=15;fillColor=#f5f5f5;fontColor=#333333;strokeColor=#666666;container=0;" parent="1" vertex="1">
          <mxGeometry x="129.9963694267516" y="90.00235294117647" width="41.273885350318466" height="29.11764705882353" as="geometry" />
        </mxCell>
        <mxCell id="kpd2LytfiKgkB2pnJVpS-94" value="0" style="rounded=1;whiteSpace=wrap;html=1;strokeWidth=2;fontFamily=Times New Roman;fontSize=15;fillColor=#f5f5f5;fontColor=#333333;strokeColor=#666666;container=0;" parent="1" vertex="1">
          <mxGeometry x="171.27025477707005" y="90.00235294117647" width="41.273885350318466" height="29.11764705882353" as="geometry" />
        </mxCell>
        <mxCell id="kpd2LytfiKgkB2pnJVpS-95" value="1" style="rounded=1;whiteSpace=wrap;html=1;strokeWidth=2;fontFamily=Times New Roman;fontSize=15;fillColor=#1ba1e2;strokeColor=#006EAF;fontColor=#000000;container=0;" parent="1" vertex="1">
          <mxGeometry x="212.5441401273885" y="90.00235294117647" width="41.273885350318466" height="29.11764705882353" as="geometry" />
        </mxCell>
        <mxCell id="kpd2LytfiKgkB2pnJVpS-96" value="1" style="rounded=1;whiteSpace=wrap;html=1;strokeWidth=2;fontFamily=Times New Roman;fontSize=15;fillColor=#dae8fc;strokeColor=#6c8ebf;container=0;" parent="1" vertex="1">
          <mxGeometry x="253.81777070063686" y="90.00235294117647" width="41.273885350318466" height="29.11764705882353" as="geometry" />
        </mxCell>
        <mxCell id="kpd2LytfiKgkB2pnJVpS-97" value="0" style="rounded=1;whiteSpace=wrap;html=1;strokeWidth=2;fontFamily=Times New Roman;fontSize=15;fillColor=#d80073;strokeColor=#A50040;fontColor=#000000;container=0;" parent="1" vertex="1">
          <mxGeometry x="295.088025477707" y="89.99882352941177" width="41.273885350318466" height="29.11764705882353" as="geometry" />
        </mxCell>
        <mxCell id="kpd2LytfiKgkB2pnJVpS-98" value="0" style="rounded=1;whiteSpace=wrap;html=1;strokeWidth=2;fontFamily=Times New Roman;fontSize=15;fillColor=#f8cecc;strokeColor=#b85450;container=0;" parent="1" vertex="1">
          <mxGeometry x="336.358025477707" y="89.99882352941177" width="41.273885350318466" height="29.11764705882353" as="geometry" />
        </mxCell>
        <mxCell id="kpd2LytfiKgkB2pnJVpS-99" value="0" style="rounded=1;whiteSpace=wrap;html=1;strokeWidth=2;fontFamily=Times New Roman;fontSize=15;fillColor=#f8cecc;strokeColor=#b85450;container=0;" parent="1" vertex="1">
          <mxGeometry x="377.62802547770696" y="89.99882352941177" width="41.273885350318466" height="29.11764705882353" as="geometry" />
        </mxCell>
        <mxCell id="kpd2LytfiKgkB2pnJVpS-100" value="1" style="rounded=1;whiteSpace=wrap;html=1;strokeWidth=2;fontFamily=Times New Roman;fontSize=15;fillColor=#1ba1e2;strokeColor=#006EAF;fontColor=#000000;container=0;" parent="1" vertex="1">
          <mxGeometry x="418.89802547770694" y="89.99882352941177" width="41.273885350318466" height="29.11764705882353" as="geometry" />
        </mxCell>
        <mxCell id="kpd2LytfiKgkB2pnJVpS-101" value="0" style="rounded=1;whiteSpace=wrap;html=1;strokeWidth=2;fontFamily=Times New Roman;fontSize=15;fillColor=#d80073;strokeColor=#A50040;fontColor=#000000;container=0;" parent="1" vertex="1">
          <mxGeometry x="460.1680254777069" y="89.99882352941177" width="41.273885350318466" height="29.11764705882353" as="geometry" />
        </mxCell>
        <mxCell id="kpd2LytfiKgkB2pnJVpS-91" value="Exact Match&lt;br&gt;Pattern" style="text;html=1;strokeColor=none;fillColor=none;align=center;verticalAlign=middle;whiteSpace=wrap;rounded=0;labelBorderColor=#FFFFFF;strokeWidth=2;fontFamily=Times New Roman;fontSize=15;fontColor=#000000;container=0;" parent="1" vertex="1">
          <mxGeometry x="10.000000000000028" y="90" width="118.53" height="29.12" as="geometry" />
        </mxCell>
        <mxCell id="kpd2LytfiKgkB2pnJVpS-110" value="&lt;font color=&quot;#000000&quot;&gt;definite positive&lt;/font&gt;" style="rounded=1;whiteSpace=wrap;html=1;strokeWidth=2;fontFamily=Times New Roman;fontSize=15;fillColor=#1ba1e2;strokeColor=#006EAF;labelBorderColor=#FFFFFF;fontColor=#ffffff;opacity=20;container=0;" parent="1" vertex="1">
          <mxGeometry x="130.00000000000003" y="10" width="117" height="29.12" as="geometry" />
        </mxCell>
        <mxCell id="kpd2LytfiKgkB2pnJVpS-111" value="&lt;font color=&quot;#000000&quot;&gt;definite negative&lt;/font&gt;" style="rounded=1;whiteSpace=wrap;html=1;strokeWidth=2;fontFamily=Times New Roman;fontSize=15;fillColor=#d80073;strokeColor=#A50040;labelBorderColor=#FFFFFF;opacity=20;fontColor=#ffffff;container=0;" parent="1" vertex="1">
          <mxGeometry x="260" y="10" width="117" height="29.12" as="geometry" />
        </mxCell>
        <mxCell id="kpd2LytfiKgkB2pnJVpS-126" style="edgeStyle=orthogonalEdgeStyle;rounded=0;orthogonalLoop=1;jettySize=auto;html=1;exitX=0.5;exitY=0;exitDx=0;exitDy=0;fontFamily=Times New Roman;fontSize=12;fontColor=#000000;" parent="1" source="kpd2LytfiKgkB2pnJVpS-95" edge="1">
          <mxGeometry relative="1" as="geometry">
            <mxPoint x="190.00000000000003" y="40" as="targetPoint" />
            <Array as="points">
              <mxPoint x="233" y="70" />
              <mxPoint x="190.00000000000003" y="70" />
            </Array>
          </mxGeometry>
        </mxCell>
        <mxCell id="kpd2LytfiKgkB2pnJVpS-134" style="edgeStyle=orthogonalEdgeStyle;rounded=0;orthogonalLoop=1;jettySize=auto;html=1;exitX=0.5;exitY=0;exitDx=0;exitDy=0;fontFamily=Times New Roman;fontSize=12;fontColor=#000000;" parent="1" source="kpd2LytfiKgkB2pnJVpS-100" edge="1">
          <mxGeometry relative="1" as="geometry">
            <mxPoint x="190.00000000000003" y="40" as="targetPoint" />
            <Array as="points">
              <mxPoint x="440" y="70" />
              <mxPoint x="190.00000000000003" y="70" />
            </Array>
          </mxGeometry>
        </mxCell>
        <mxCell id="kpd2LytfiKgkB2pnJVpS-149" value="1) Decisive part" style="text;html=1;strokeColor=none;fillColor=none;align=left;verticalAlign=middle;whiteSpace=wrap;rounded=0;labelBorderColor=#FFFFFF;strokeWidth=2;fontFamily=Times New Roman;fontSize=15;fontColor=#000000;container=0;" parent="1" vertex="1">
          <mxGeometry x="10.000000000000028" y="10" width="118.53" height="29.12" as="geometry" />
        </mxCell>
        <mxCell id="kpd2LytfiKgkB2pnJVpS-150" value="" style="shape=curlyBracket;whiteSpace=wrap;html=1;rounded=1;labelPosition=left;verticalLabelPosition=middle;align=right;verticalAlign=middle;labelBorderColor=#FFFFFF;strokeWidth=2;fontFamily=Times New Roman;fontSize=12;fontColor=#333333;fillColor=#f5f5f5;opacity=20;direction=north;size=0.5;strokeColor=#666666;container=0;" parent="1" vertex="1">
          <mxGeometry x="130.00000000000003" y="129.56" width="80" height="10" as="geometry" />
        </mxCell>
        <mxCell id="kpd2LytfiKgkB2pnJVpS-151" value="" style="shape=curlyBracket;whiteSpace=wrap;html=1;rounded=1;labelPosition=left;verticalLabelPosition=middle;align=right;verticalAlign=middle;labelBorderColor=#FFFFFF;strokeWidth=2;fontFamily=Times New Roman;fontSize=12;fillColor=#f8cecc;opacity=20;direction=north;size=0.5;strokeColor=#b85450;container=0;" parent="1" vertex="1">
          <mxGeometry x="340" y="129.56" width="80" height="10" as="geometry" />
        </mxCell>
        <mxCell id="kpd2LytfiKgkB2pnJVpS-152" value="" style="shape=curlyBracket;whiteSpace=wrap;html=1;rounded=1;labelPosition=left;verticalLabelPosition=middle;align=right;verticalAlign=middle;labelBorderColor=#FFFFFF;strokeWidth=2;fontFamily=Times New Roman;fontSize=12;fillColor=#dae8fc;opacity=20;direction=north;size=0.5;strokeColor=#6c8ebf;container=0;" parent="1" vertex="1">
          <mxGeometry x="250" y="129.56" width="50" height="10" as="geometry" />
        </mxCell>
        <mxCell id="kpd2LytfiKgkB2pnJVpS-154" value="Initial 0s" style="rounded=1;whiteSpace=wrap;html=1;strokeWidth=2;fontFamily=Times New Roman;fontSize=15;fillColor=#f5f5f5;strokeColor=#666666;labelBorderColor=#FFFFFF;opacity=20;fontColor=#333333;container=0;" parent="1" vertex="1">
          <mxGeometry x="135.63000000000002" y="149.12" width="68.75" height="29.12" as="geometry" />
        </mxCell>
        <mxCell id="kpd2LytfiKgkB2pnJVpS-155" value="semi-negative" style="rounded=1;whiteSpace=wrap;html=1;strokeWidth=2;fontFamily=Times New Roman;fontSize=15;fillColor=#f8cecc;strokeColor=#b85450;labelBorderColor=#FFFFFF;opacity=20;container=0;" parent="1" vertex="1">
          <mxGeometry x="334.13" y="149.12" width="91.75" height="29.12" as="geometry" />
        </mxCell>
        <mxCell id="kpd2LytfiKgkB2pnJVpS-156" value="semi-positive" style="rounded=1;whiteSpace=wrap;html=1;strokeWidth=2;fontFamily=Times New Roman;fontSize=15;fillColor=#dae8fc;strokeColor=#6c8ebf;labelBorderColor=#FFFFFF;fontColor=#000000;opacity=20;container=0;" parent="1" vertex="1">
          <mxGeometry x="233.25" y="149.12" width="86.75" height="29.12" as="geometry" />
        </mxCell>
        <mxCell id="kpd2LytfiKgkB2pnJVpS-157" value="2) Indecisive part" style="text;html=1;strokeColor=none;fillColor=none;align=left;verticalAlign=middle;whiteSpace=wrap;rounded=0;labelBorderColor=#FFFFFF;strokeWidth=2;fontFamily=Times New Roman;fontSize=15;fontColor=#000000;container=0;" parent="1" vertex="1">
          <mxGeometry x="10.000000000000028" y="149.12" width="118.53" height="29.12" as="geometry" />
        </mxCell>
        <mxCell id="iUxV_MsPpX9Iy4lTJz8J-79" value="" style="group" parent="1" vertex="1" connectable="0">
          <mxGeometry x="10.000000000000114" y="289.99882352941177" width="491.56191082802536" height="29.12117647058824" as="geometry" />
        </mxCell>
        <mxCell id="iUxV_MsPpX9Iy4lTJz8J-80" value="" style="group" parent="iUxV_MsPpX9Iy4lTJz8J-79" vertex="1" connectable="0">
          <mxGeometry x="120.11636942675153" width="371.44554140127383" height="29.12117647058824" as="geometry" />
        </mxCell>
        <mxCell id="iUxV_MsPpX9Iy4lTJz8J-81" value="P&lt;span style=&quot;font-size: 12.5px;&quot;&gt;&lt;sub&gt;3&lt;/sub&gt;&lt;/span&gt;" style="rounded=1;whiteSpace=wrap;html=1;strokeWidth=2;fontFamily=Times New Roman;fontSize=15;fillColor=#1ba1e2;fontColor=#000000;strokeColor=#006EAF;" parent="iUxV_MsPpX9Iy4lTJz8J-80" vertex="1">
          <mxGeometry x="82.54777070063687" y="0.0035294117647026724" width="41.273885350318466" height="29.11764705882353" as="geometry" />
        </mxCell>
        <mxCell id="iUxV_MsPpX9Iy4lTJz8J-82" value="P&lt;span style=&quot;font-size: 12.5px;&quot;&gt;&lt;sub&gt;4&lt;/sub&gt;&lt;/span&gt;" style="rounded=1;whiteSpace=wrap;html=1;strokeWidth=2;fontFamily=Times New Roman;fontSize=15;fillColor=#dae8fc;strokeColor=#6c8ebf;fontColor=#000000;" parent="iUxV_MsPpX9Iy4lTJz8J-80" vertex="1">
          <mxGeometry x="123.82140127388527" y="0.0035294117647026724" width="41.273885350318466" height="29.11764705882353" as="geometry" />
        </mxCell>
        <mxCell id="iUxV_MsPpX9Iy4lTJz8J-83" value="P&lt;span style=&quot;font-size: 12.5px;&quot;&gt;&lt;sub&gt;7&lt;/sub&gt;&lt;/span&gt;" style="rounded=1;whiteSpace=wrap;html=1;strokeWidth=2;fontFamily=Times New Roman;fontSize=15;fillColor=#1ba1e2;strokeColor=#006EAF;fontColor=#000000;" parent="iUxV_MsPpX9Iy4lTJz8J-80" vertex="1">
          <mxGeometry x="288.90165605095535" width="41.273885350318466" height="29.11764705882353" as="geometry" />
        </mxCell>
        <mxCell id="zvDqhIaBaBwxAIJumlUE-13" value="P&lt;span style=&quot;font-size: 10.4167px;&quot;&gt;8&lt;/span&gt;" style="rounded=1;whiteSpace=wrap;html=1;strokeWidth=2;fontFamily=Times New Roman;fontSize=15;fillColor=#1ba1e2;strokeColor=#006EAF;fontColor=#000000;" vertex="1" parent="iUxV_MsPpX9Iy4lTJz8J-80">
          <mxGeometry x="288.9016560509553" width="41.273885350318466" height="29.11764705882353" as="geometry" />
        </mxCell>
        <mxCell id="iUxV_MsPpX9Iy4lTJz8J-85" value="Probe 1" style="text;html=1;strokeColor=none;fillColor=none;align=center;verticalAlign=middle;whiteSpace=wrap;rounded=0;labelBorderColor=#FFFFFF;strokeWidth=2;fontFamily=Times New Roman;fontSize=15;fontColor=#000000;" parent="iUxV_MsPpX9Iy4lTJz8J-79" vertex="1">
          <mxGeometry y="0.0011764705882342241" width="118.53" height="29.12" as="geometry" />
        </mxCell>
        <mxCell id="iUxV_MsPpX9Iy4lTJz8J-86" value="" style="group" parent="1" vertex="1" connectable="0">
          <mxGeometry x="10.000000000000114" y="339.99882352941177" width="491.56191082802536" height="29.12117647058824" as="geometry" />
        </mxCell>
        <mxCell id="iUxV_MsPpX9Iy4lTJz8J-87" value="" style="group" parent="iUxV_MsPpX9Iy4lTJz8J-86" vertex="1" connectable="0">
          <mxGeometry x="120.11636942675153" width="371.44554140127383" height="29.12117647058824" as="geometry" />
        </mxCell>
        <mxCell id="iUxV_MsPpX9Iy4lTJz8J-88" value="P&lt;span style=&quot;font-size: 12.5px;&quot;&gt;&lt;sub&gt;3&lt;/sub&gt;&lt;/span&gt;" style="rounded=1;whiteSpace=wrap;html=1;strokeWidth=2;fontFamily=Times New Roman;fontSize=15;fillColor=#1ba1e2;fontColor=#000000;strokeColor=#006EAF;" parent="iUxV_MsPpX9Iy4lTJz8J-87" vertex="1">
          <mxGeometry x="82.54777070063687" y="0.0035294117647026724" width="41.273885350318466" height="29.11764705882353" as="geometry" />
        </mxCell>
        <mxCell id="iUxV_MsPpX9Iy4lTJz8J-89" value="P&lt;span style=&quot;font-size: 12.5px;&quot;&gt;&lt;sub&gt;7&lt;/sub&gt;&lt;/span&gt;" style="rounded=1;whiteSpace=wrap;html=1;strokeWidth=2;fontFamily=Times New Roman;fontSize=15;fillColor=#1ba1e2;strokeColor=#006EAF;fontColor=#000000;" parent="iUxV_MsPpX9Iy4lTJz8J-87" vertex="1">
          <mxGeometry x="288.90165605095535" width="41.273885350318466" height="29.11764705882353" as="geometry" />
        </mxCell>
        <mxCell id="zvDqhIaBaBwxAIJumlUE-14" value="P&lt;span style=&quot;font-size: 10.4167px;&quot;&gt;8&lt;/span&gt;" style="rounded=1;whiteSpace=wrap;html=1;strokeWidth=2;fontFamily=Times New Roman;fontSize=15;fillColor=#1ba1e2;strokeColor=#006EAF;fontColor=#000000;" vertex="1" parent="iUxV_MsPpX9Iy4lTJz8J-87">
          <mxGeometry x="288.9016560509553" width="41.273885350318466" height="29.11764705882353" as="geometry" />
        </mxCell>
        <mxCell id="iUxV_MsPpX9Iy4lTJz8J-90" value="Probe 2" style="text;html=1;strokeColor=none;fillColor=none;align=center;verticalAlign=middle;whiteSpace=wrap;rounded=0;labelBorderColor=#FFFFFF;strokeWidth=2;fontFamily=Times New Roman;fontSize=15;fontColor=#000000;" parent="iUxV_MsPpX9Iy4lTJz8J-86" vertex="1">
          <mxGeometry y="0.0011764705882342241" width="118.53" height="29.12" as="geometry" />
        </mxCell>
        <mxCell id="iUxV_MsPpX9Iy4lTJz8J-91" value="" style="group" parent="1" vertex="1" connectable="0">
          <mxGeometry x="10.000000000000114" y="389.99882352941177" width="491.56191082802536" height="29.12117647058824" as="geometry" />
        </mxCell>
        <mxCell id="iUxV_MsPpX9Iy4lTJz8J-92" value="" style="group" parent="iUxV_MsPpX9Iy4lTJz8J-91" vertex="1" connectable="0">
          <mxGeometry x="120.11636942675153" width="371.44554140127383" height="29.12117647058824" as="geometry" />
        </mxCell>
        <mxCell id="iUxV_MsPpX9Iy4lTJz8J-93" value="P&lt;sub&gt;1&lt;/sub&gt;" style="rounded=1;whiteSpace=wrap;html=1;strokeWidth=2;fontFamily=Times New Roman;fontSize=15;fillColor=#f5f5f5;fontColor=#333333;strokeColor=#666666;" parent="iUxV_MsPpX9Iy4lTJz8J-92" vertex="1">
          <mxGeometry y="0.0035294117647026724" width="41.273885350318466" height="29.11764705882353" as="geometry" />
        </mxCell>
        <mxCell id="iUxV_MsPpX9Iy4lTJz8J-94" value="P&lt;sub&gt;2&lt;/sub&gt;" style="rounded=1;whiteSpace=wrap;html=1;strokeWidth=2;fontFamily=Times New Roman;fontSize=15;fillColor=#f5f5f5;fontColor=#000000;strokeColor=#666666;" parent="iUxV_MsPpX9Iy4lTJz8J-92" vertex="1">
          <mxGeometry x="41.27388535031844" y="0.0035294117647026724" width="41.273885350318466" height="29.11764705882353" as="geometry" />
        </mxCell>
        <mxCell id="iUxV_MsPpX9Iy4lTJz8J-95" value="P&lt;span style=&quot;font-size: 12.5px;&quot;&gt;&lt;sub&gt;3&lt;/sub&gt;&lt;/span&gt;" style="rounded=1;whiteSpace=wrap;html=1;strokeWidth=2;fontFamily=Times New Roman;fontSize=15;fillColor=#1ba1e2;fontColor=#000000;strokeColor=#006EAF;" parent="iUxV_MsPpX9Iy4lTJz8J-92" vertex="1">
          <mxGeometry x="82.54777070063687" y="0.0035294117647026724" width="41.273885350318466" height="29.11764705882353" as="geometry" />
        </mxCell>
        <mxCell id="iUxV_MsPpX9Iy4lTJz8J-96" value="P&lt;span style=&quot;font-size: 12.5px;&quot;&gt;&lt;sub&gt;4&lt;/sub&gt;&lt;/span&gt;" style="rounded=1;whiteSpace=wrap;html=1;strokeWidth=2;fontFamily=Times New Roman;fontSize=15;fillColor=#dae8fc;strokeColor=#6c8ebf;fontColor=#000000;" parent="iUxV_MsPpX9Iy4lTJz8J-92" vertex="1">
          <mxGeometry x="123.82140127388527" y="0.0035294117647026724" width="41.273885350318466" height="29.11764705882353" as="geometry" />
        </mxCell>
        <mxCell id="iUxV_MsPpX9Iy4lTJz8J-97" value="P&lt;span style=&quot;font-size: 12.5px;&quot;&gt;&lt;sub&gt;7&lt;/sub&gt;&lt;/span&gt;" style="rounded=1;whiteSpace=wrap;html=1;strokeWidth=2;fontFamily=Times New Roman;fontSize=15;fillColor=#1ba1e2;strokeColor=#006EAF;fontColor=#000000;" parent="iUxV_MsPpX9Iy4lTJz8J-92" vertex="1">
          <mxGeometry x="288.90165605095535" width="41.273885350318466" height="29.11764705882353" as="geometry" />
        </mxCell>
        <mxCell id="zvDqhIaBaBwxAIJumlUE-15" value="P&lt;span style=&quot;font-size: 10.4167px;&quot;&gt;8&lt;/span&gt;" style="rounded=1;whiteSpace=wrap;html=1;strokeWidth=2;fontFamily=Times New Roman;fontSize=15;fillColor=#1ba1e2;strokeColor=#006EAF;fontColor=#000000;" vertex="1" parent="iUxV_MsPpX9Iy4lTJz8J-92">
          <mxGeometry x="288.9016560509553" width="41.273885350318466" height="29.11764705882353" as="geometry" />
        </mxCell>
        <mxCell id="iUxV_MsPpX9Iy4lTJz8J-99" value="Probe 3" style="text;html=1;strokeColor=none;fillColor=none;align=center;verticalAlign=middle;whiteSpace=wrap;rounded=0;labelBorderColor=#FFFFFF;strokeWidth=2;fontFamily=Times New Roman;fontSize=15;fontColor=#000000;" parent="iUxV_MsPpX9Iy4lTJz8J-91" vertex="1">
          <mxGeometry y="0.0011764705882342241" width="118.53" height="29.12" as="geometry" />
        </mxCell>
        <mxCell id="iUxV_MsPpX9Iy4lTJz8J-100" value="" style="group" parent="1" vertex="1" connectable="0">
          <mxGeometry x="10.000000000000114" y="439.99882352941177" width="491.56191082802536" height="29.12117647058824" as="geometry" />
        </mxCell>
        <mxCell id="iUxV_MsPpX9Iy4lTJz8J-101" value="" style="group" parent="iUxV_MsPpX9Iy4lTJz8J-100" vertex="1" connectable="0">
          <mxGeometry x="120.11636942675153" width="371.44554140127383" height="29.12117647058824" as="geometry" />
        </mxCell>
        <mxCell id="iUxV_MsPpX9Iy4lTJz8J-102" value="P&lt;sub&gt;1&lt;/sub&gt;" style="rounded=1;whiteSpace=wrap;html=1;strokeWidth=2;fontFamily=Times New Roman;fontSize=15;fillColor=#f5f5f5;fontColor=#333333;strokeColor=#666666;" parent="iUxV_MsPpX9Iy4lTJz8J-101" vertex="1">
          <mxGeometry y="0.0035294117647026724" width="41.273885350318466" height="29.11764705882353" as="geometry" />
        </mxCell>
        <mxCell id="iUxV_MsPpX9Iy4lTJz8J-103" value="P&lt;sub&gt;2&lt;/sub&gt;" style="rounded=1;whiteSpace=wrap;html=1;strokeWidth=2;fontFamily=Times New Roman;fontSize=15;fillColor=#f5f5f5;fontColor=#000000;strokeColor=#666666;" parent="iUxV_MsPpX9Iy4lTJz8J-101" vertex="1">
          <mxGeometry x="41.27388535031844" y="0.0035294117647026724" width="41.273885350318466" height="29.11764705882353" as="geometry" />
        </mxCell>
        <mxCell id="iUxV_MsPpX9Iy4lTJz8J-104" value="P&lt;span style=&quot;font-size: 12.5px;&quot;&gt;&lt;sub&gt;3&lt;/sub&gt;&lt;/span&gt;" style="rounded=1;whiteSpace=wrap;html=1;strokeWidth=2;fontFamily=Times New Roman;fontSize=15;fillColor=#1ba1e2;fontColor=#000000;strokeColor=#006EAF;" parent="iUxV_MsPpX9Iy4lTJz8J-101" vertex="1">
          <mxGeometry x="82.54777070063687" y="0.0035294117647026724" width="41.273885350318466" height="29.11764705882353" as="geometry" />
        </mxCell>
        <mxCell id="iUxV_MsPpX9Iy4lTJz8J-105" value="P&lt;span style=&quot;font-size: 12.5px;&quot;&gt;&lt;sub&gt;7&lt;/sub&gt;&lt;/span&gt;" style="rounded=1;whiteSpace=wrap;html=1;strokeWidth=2;fontFamily=Times New Roman;fontSize=15;fillColor=#1ba1e2;strokeColor=#006EAF;fontColor=#000000;" parent="iUxV_MsPpX9Iy4lTJz8J-101" vertex="1">
          <mxGeometry x="288.90165605095535" width="41.273885350318466" height="29.11764705882353" as="geometry" />
        </mxCell>
        <mxCell id="zvDqhIaBaBwxAIJumlUE-16" value="P&lt;span style=&quot;font-size: 10.4167px;&quot;&gt;8&lt;/span&gt;" style="rounded=1;whiteSpace=wrap;html=1;strokeWidth=2;fontFamily=Times New Roman;fontSize=15;fillColor=#1ba1e2;strokeColor=#006EAF;fontColor=#000000;" vertex="1" parent="iUxV_MsPpX9Iy4lTJz8J-101">
          <mxGeometry x="288.9016560509553" width="41.273885350318466" height="29.11764705882353" as="geometry" />
        </mxCell>
        <mxCell id="iUxV_MsPpX9Iy4lTJz8J-106" value="Probe 4" style="text;html=1;strokeColor=none;fillColor=none;align=center;verticalAlign=middle;whiteSpace=wrap;rounded=0;labelBorderColor=#FFFFFF;strokeWidth=2;fontFamily=Times New Roman;fontSize=15;fontColor=#000000;" parent="iUxV_MsPpX9Iy4lTJz8J-100" vertex="1">
          <mxGeometry y="0.0011764705882342241" width="118.53" height="29.12" as="geometry" />
        </mxCell>
        <mxCell id="iUxV_MsPpX9Iy4lTJz8J-107" value="" style="group" parent="1" vertex="1" connectable="0">
          <mxGeometry x="10.000000000000114" y="489.99882352941177" width="491.56191082802536" height="29.12117647058824" as="geometry" />
        </mxCell>
        <mxCell id="iUxV_MsPpX9Iy4lTJz8J-108" value="" style="group" parent="iUxV_MsPpX9Iy4lTJz8J-107" vertex="1" connectable="0">
          <mxGeometry x="120.11636942675153" width="371.44554140127383" height="29.12117647058824" as="geometry" />
        </mxCell>
        <mxCell id="iUxV_MsPpX9Iy4lTJz8J-109" value="P&lt;sub&gt;1&lt;/sub&gt;" style="rounded=1;whiteSpace=wrap;html=1;strokeWidth=2;fontFamily=Times New Roman;fontSize=15;fillColor=#f5f5f5;fontColor=#333333;strokeColor=#666666;" parent="iUxV_MsPpX9Iy4lTJz8J-108" vertex="1">
          <mxGeometry y="0.0035294117647026724" width="41.273885350318466" height="29.11764705882353" as="geometry" />
        </mxCell>
        <mxCell id="iUxV_MsPpX9Iy4lTJz8J-110" value="P&lt;sub&gt;2&lt;/sub&gt;" style="rounded=1;whiteSpace=wrap;html=1;strokeWidth=2;fontFamily=Times New Roman;fontSize=15;fillColor=#f5f5f5;fontColor=#000000;strokeColor=#666666;" parent="iUxV_MsPpX9Iy4lTJz8J-108" vertex="1">
          <mxGeometry x="41.27388535031844" y="0.0035294117647026724" width="41.273885350318466" height="29.11764705882353" as="geometry" />
        </mxCell>
        <mxCell id="iUxV_MsPpX9Iy4lTJz8J-111" value="P&lt;span style=&quot;font-size: 12.5px;&quot;&gt;&lt;sub&gt;3&lt;/sub&gt;&lt;/span&gt;" style="rounded=1;whiteSpace=wrap;html=1;strokeWidth=2;fontFamily=Times New Roman;fontSize=15;fillColor=#1ba1e2;fontColor=#000000;strokeColor=#006EAF;" parent="iUxV_MsPpX9Iy4lTJz8J-108" vertex="1">
          <mxGeometry x="82.54777070063687" y="0.0035294117647026724" width="41.273885350318466" height="29.11764705882353" as="geometry" />
        </mxCell>
        <mxCell id="iUxV_MsPpX9Iy4lTJz8J-112" value="P&lt;span style=&quot;font-size: 12.5px;&quot;&gt;&lt;sub&gt;4&lt;/sub&gt;&lt;/span&gt;" style="rounded=1;whiteSpace=wrap;html=1;strokeWidth=2;fontFamily=Times New Roman;fontSize=15;fillColor=#dae8fc;strokeColor=#6c8ebf;fontColor=#000000;" parent="iUxV_MsPpX9Iy4lTJz8J-108" vertex="1">
          <mxGeometry x="123.82140127388527" y="0.0035294117647026724" width="41.273885350318466" height="29.11764705882353" as="geometry" />
        </mxCell>
        <mxCell id="iUxV_MsPpX9Iy4lTJz8J-113" value="P&lt;span style=&quot;font-size: 12.5px;&quot;&gt;&lt;sub&gt;5&lt;/sub&gt;&lt;/span&gt;" style="rounded=1;whiteSpace=wrap;html=1;strokeWidth=2;fontFamily=Times New Roman;fontSize=15;fillColor=#fad9d5;strokeColor=#ae4132;fontColor=#000000;" parent="iUxV_MsPpX9Iy4lTJz8J-108" vertex="1">
          <mxGeometry x="206.36165605095545" width="41.273885350318466" height="29.11764705882353" as="geometry" />
        </mxCell>
        <mxCell id="iUxV_MsPpX9Iy4lTJz8J-114" value="P&lt;span style=&quot;font-size: 12.5px;&quot;&gt;&lt;sub&gt;6&lt;/sub&gt;&lt;/span&gt;" style="rounded=1;whiteSpace=wrap;html=1;strokeWidth=2;fontFamily=Times New Roman;fontSize=15;fillColor=#fad9d5;strokeColor=#ae4132;fontColor=#000000;" parent="iUxV_MsPpX9Iy4lTJz8J-108" vertex="1">
          <mxGeometry x="247.63165605095543" width="41.273885350318466" height="29.11764705882353" as="geometry" />
        </mxCell>
        <mxCell id="iUxV_MsPpX9Iy4lTJz8J-115" value="P&lt;span style=&quot;font-size: 12.5px;&quot;&gt;&lt;sub&gt;7&lt;/sub&gt;&lt;/span&gt;" style="rounded=1;whiteSpace=wrap;html=1;strokeWidth=2;fontFamily=Times New Roman;fontSize=15;fillColor=#1ba1e2;strokeColor=#006EAF;fontColor=#000000;" parent="iUxV_MsPpX9Iy4lTJz8J-108" vertex="1">
          <mxGeometry x="288.90165605095535" width="41.273885350318466" height="29.11764705882353" as="geometry" />
        </mxCell>
        <mxCell id="zvDqhIaBaBwxAIJumlUE-17" value="P&lt;span style=&quot;font-size: 10.4167px;&quot;&gt;8&lt;/span&gt;" style="rounded=1;whiteSpace=wrap;html=1;strokeWidth=2;fontFamily=Times New Roman;fontSize=15;fillColor=#1ba1e2;strokeColor=#006EAF;fontColor=#000000;" vertex="1" parent="iUxV_MsPpX9Iy4lTJz8J-108">
          <mxGeometry x="288.9016560509553" width="41.273885350318466" height="29.11764705882353" as="geometry" />
        </mxCell>
        <mxCell id="zvDqhIaBaBwxAIJumlUE-19" value="P&lt;span style=&quot;font-size: 12.5px;&quot;&gt;&lt;sub&gt;7&lt;/sub&gt;&lt;/span&gt;" style="rounded=1;whiteSpace=wrap;html=1;strokeWidth=2;fontFamily=Times New Roman;fontSize=15;fillColor=#fad9d5;strokeColor=#ae4132;fontColor=#000000;" vertex="1" parent="iUxV_MsPpX9Iy4lTJz8J-108">
          <mxGeometry x="247.63165605095537" width="41.273885350318466" height="29.11764705882353" as="geometry" />
        </mxCell>
        <mxCell id="zvDqhIaBaBwxAIJumlUE-21" value="P&lt;span style=&quot;font-size: 12.5px;&quot;&gt;&lt;sub&gt;6&lt;/sub&gt;&lt;/span&gt;" style="rounded=1;whiteSpace=wrap;html=1;strokeWidth=2;fontFamily=Times New Roman;fontSize=15;fillColor=#fad9d5;strokeColor=#ae4132;fontColor=#000000;" vertex="1" parent="iUxV_MsPpX9Iy4lTJz8J-108">
          <mxGeometry x="206.3616560509554" width="41.273885350318466" height="29.11764705882353" as="geometry" />
        </mxCell>
        <mxCell id="iUxV_MsPpX9Iy4lTJz8J-116" value="Probe 5" style="text;html=1;strokeColor=none;fillColor=none;align=center;verticalAlign=middle;whiteSpace=wrap;rounded=0;labelBorderColor=#FFFFFF;strokeWidth=2;fontFamily=Times New Roman;fontSize=15;fontColor=#000000;" parent="iUxV_MsPpX9Iy4lTJz8J-107" vertex="1">
          <mxGeometry y="0.0011764705882342241" width="118.53" height="29.12" as="geometry" />
        </mxCell>
        <mxCell id="iUxV_MsPpX9Iy4lTJz8J-117" value="" style="group" parent="1" vertex="1" connectable="0">
          <mxGeometry x="10.000000000000114" y="539.9988235294118" width="491.56191082802536" height="29.12117647058824" as="geometry" />
        </mxCell>
        <mxCell id="iUxV_MsPpX9Iy4lTJz8J-118" value="" style="group" parent="iUxV_MsPpX9Iy4lTJz8J-117" vertex="1" connectable="0">
          <mxGeometry x="120.11636942675153" width="371.44554140127383" height="29.12117647058824" as="geometry" />
        </mxCell>
        <mxCell id="iUxV_MsPpX9Iy4lTJz8J-119" value="P&lt;sub&gt;1&lt;/sub&gt;" style="rounded=1;whiteSpace=wrap;html=1;strokeWidth=2;fontFamily=Times New Roman;fontSize=15;fillColor=#f5f5f5;fontColor=#333333;strokeColor=#666666;" parent="iUxV_MsPpX9Iy4lTJz8J-118" vertex="1">
          <mxGeometry y="0.0035294117647026724" width="41.273885350318466" height="29.11764705882353" as="geometry" />
        </mxCell>
        <mxCell id="iUxV_MsPpX9Iy4lTJz8J-120" value="P&lt;sub&gt;2&lt;/sub&gt;" style="rounded=1;whiteSpace=wrap;html=1;strokeWidth=2;fontFamily=Times New Roman;fontSize=15;fillColor=#f5f5f5;fontColor=#000000;strokeColor=#666666;" parent="iUxV_MsPpX9Iy4lTJz8J-118" vertex="1">
          <mxGeometry x="41.27388535031844" y="0.0035294117647026724" width="41.273885350318466" height="29.11764705882353" as="geometry" />
        </mxCell>
        <mxCell id="iUxV_MsPpX9Iy4lTJz8J-121" value="P&lt;span style=&quot;font-size: 12.5px;&quot;&gt;&lt;sub&gt;3&lt;/sub&gt;&lt;/span&gt;" style="rounded=1;whiteSpace=wrap;html=1;strokeWidth=2;fontFamily=Times New Roman;fontSize=15;fillColor=#1ba1e2;fontColor=#000000;strokeColor=#006EAF;" parent="iUxV_MsPpX9Iy4lTJz8J-118" vertex="1">
          <mxGeometry x="82.54777070063687" y="0.0035294117647026724" width="41.273885350318466" height="29.11764705882353" as="geometry" />
        </mxCell>
        <mxCell id="iUxV_MsPpX9Iy4lTJz8J-122" value="P&lt;span style=&quot;font-size: 12.5px;&quot;&gt;&lt;sub&gt;5&lt;/sub&gt;&lt;/span&gt;" style="rounded=1;whiteSpace=wrap;html=1;strokeWidth=2;fontFamily=Times New Roman;fontSize=15;fillColor=#fad9d5;strokeColor=#ae4132;fontColor=#000000;" parent="iUxV_MsPpX9Iy4lTJz8J-118" vertex="1">
          <mxGeometry x="206.36165605095545" width="41.273885350318466" height="29.11764705882353" as="geometry" />
        </mxCell>
        <mxCell id="iUxV_MsPpX9Iy4lTJz8J-123" value="P&lt;span style=&quot;font-size: 12.5px;&quot;&gt;&lt;sub&gt;6&lt;/sub&gt;&lt;/span&gt;" style="rounded=1;whiteSpace=wrap;html=1;strokeWidth=2;fontFamily=Times New Roman;fontSize=15;fillColor=#fad9d5;strokeColor=#ae4132;fontColor=#000000;" parent="iUxV_MsPpX9Iy4lTJz8J-118" vertex="1">
          <mxGeometry x="247.63165605095543" width="41.273885350318466" height="29.11764705882353" as="geometry" />
        </mxCell>
        <mxCell id="iUxV_MsPpX9Iy4lTJz8J-124" value="P&lt;span style=&quot;font-size: 12.5px;&quot;&gt;&lt;sub&gt;7&lt;/sub&gt;&lt;/span&gt;" style="rounded=1;whiteSpace=wrap;html=1;strokeWidth=2;fontFamily=Times New Roman;fontSize=15;fillColor=#1ba1e2;strokeColor=#006EAF;fontColor=#000000;" parent="iUxV_MsPpX9Iy4lTJz8J-118" vertex="1">
          <mxGeometry x="288.90165605095535" width="41.273885350318466" height="29.11764705882353" as="geometry" />
        </mxCell>
        <mxCell id="zvDqhIaBaBwxAIJumlUE-18" value="P&lt;span style=&quot;font-size: 10.4167px;&quot;&gt;8&lt;/span&gt;" style="rounded=1;whiteSpace=wrap;html=1;strokeWidth=2;fontFamily=Times New Roman;fontSize=15;fillColor=#1ba1e2;strokeColor=#006EAF;fontColor=#000000;" vertex="1" parent="iUxV_MsPpX9Iy4lTJz8J-118">
          <mxGeometry x="288.9016560509553" width="41.273885350318466" height="29.11764705882353" as="geometry" />
        </mxCell>
        <mxCell id="zvDqhIaBaBwxAIJumlUE-20" value="P&lt;span style=&quot;font-size: 12.5px;&quot;&gt;&lt;sub&gt;7&lt;/sub&gt;&lt;/span&gt;" style="rounded=1;whiteSpace=wrap;html=1;strokeWidth=2;fontFamily=Times New Roman;fontSize=15;fillColor=#fad9d5;strokeColor=#ae4132;fontColor=#000000;" vertex="1" parent="iUxV_MsPpX9Iy4lTJz8J-118">
          <mxGeometry x="247.63165605095537" width="41.273885350318466" height="29.11764705882353" as="geometry" />
        </mxCell>
        <mxCell id="zvDqhIaBaBwxAIJumlUE-22" value="P&lt;span style=&quot;font-size: 12.5px;&quot;&gt;&lt;sub&gt;6&lt;/sub&gt;&lt;/span&gt;" style="rounded=1;whiteSpace=wrap;html=1;strokeWidth=2;fontFamily=Times New Roman;fontSize=15;fillColor=#fad9d5;strokeColor=#ae4132;fontColor=#000000;" vertex="1" parent="iUxV_MsPpX9Iy4lTJz8J-118">
          <mxGeometry x="206.3616560509554" width="41.273885350318466" height="29.11764705882353" as="geometry" />
        </mxCell>
        <mxCell id="iUxV_MsPpX9Iy4lTJz8J-125" value="Probe 6" style="text;html=1;strokeColor=none;fillColor=none;align=center;verticalAlign=middle;whiteSpace=wrap;rounded=0;labelBorderColor=#FFFFFF;strokeWidth=2;fontFamily=Times New Roman;fontSize=15;fontColor=#000000;" parent="iUxV_MsPpX9Iy4lTJz8J-117" vertex="1">
          <mxGeometry y="0.0011764705882342241" width="118.53" height="29.12" as="geometry" />
        </mxCell>
        <mxCell id="iUxV_MsPpX9Iy4lTJz8J-126" value="" style="group" parent="1" vertex="1" connectable="0">
          <mxGeometry x="129.99636942675158" y="229.99882352941177" width="371.44554140127383" height="29.12117647058824" as="geometry" />
        </mxCell>
        <mxCell id="iUxV_MsPpX9Iy4lTJz8J-127" value="P&lt;sub&gt;1&lt;/sub&gt;" style="rounded=1;whiteSpace=wrap;html=1;strokeWidth=2;fontFamily=Times New Roman;fontSize=15;fillColor=#f5f5f5;fontColor=#333333;strokeColor=#666666;" parent="iUxV_MsPpX9Iy4lTJz8J-126" vertex="1">
          <mxGeometry y="0.0035294117647026724" width="41.273885350318466" height="29.11764705882353" as="geometry" />
        </mxCell>
        <mxCell id="iUxV_MsPpX9Iy4lTJz8J-128" value="P&lt;sub&gt;2&lt;/sub&gt;" style="rounded=1;whiteSpace=wrap;html=1;strokeWidth=2;fontFamily=Times New Roman;fontSize=15;fillColor=#f5f5f5;fontColor=#000000;strokeColor=#666666;" parent="iUxV_MsPpX9Iy4lTJz8J-126" vertex="1">
          <mxGeometry x="41.27388535031844" y="0.0035294117647026724" width="41.273885350318466" height="29.11764705882353" as="geometry" />
        </mxCell>
        <mxCell id="iUxV_MsPpX9Iy4lTJz8J-129" value="P&lt;span style=&quot;font-size: 12.5px;&quot;&gt;&lt;sub&gt;3&lt;/sub&gt;&lt;/span&gt;" style="rounded=1;whiteSpace=wrap;html=1;strokeWidth=2;fontFamily=Times New Roman;fontSize=15;fillColor=#1ba1e2;fontColor=#000000;strokeColor=#006EAF;" parent="iUxV_MsPpX9Iy4lTJz8J-126" vertex="1">
          <mxGeometry x="82.54777070063687" y="0.0035294117647026724" width="41.273885350318466" height="29.11764705882353" as="geometry" />
        </mxCell>
        <mxCell id="iUxV_MsPpX9Iy4lTJz8J-130" value="P&lt;span style=&quot;font-size: 12.5px;&quot;&gt;&lt;sub&gt;4&lt;/sub&gt;&lt;/span&gt;" style="rounded=1;whiteSpace=wrap;html=1;strokeWidth=2;fontFamily=Times New Roman;fontSize=15;fillColor=#dae8fc;strokeColor=#6c8ebf;fontColor=#000000;" parent="iUxV_MsPpX9Iy4lTJz8J-126" vertex="1">
          <mxGeometry x="123.82140127388527" y="0.0035294117647026724" width="41.273885350318466" height="29.11764705882353" as="geometry" />
        </mxCell>
        <mxCell id="iUxV_MsPpX9Iy4lTJz8J-131" value="P&lt;span style=&quot;font-size: 12.5px;&quot;&gt;&lt;sub&gt;5&lt;/sub&gt;&lt;/span&gt;" style="rounded=1;whiteSpace=wrap;html=1;strokeWidth=2;fontFamily=Times New Roman;fontSize=15;fillColor=#d80073;fontColor=#000000;strokeColor=#A50040;" parent="iUxV_MsPpX9Iy4lTJz8J-126" vertex="1">
          <mxGeometry x="165.0916560509554" width="41.273885350318466" height="29.11764705882353" as="geometry" />
        </mxCell>
        <mxCell id="iUxV_MsPpX9Iy4lTJz8J-132" value="P&lt;span style=&quot;font-size: 10.4167px;&quot;&gt;6&lt;/span&gt;" style="rounded=1;whiteSpace=wrap;html=1;strokeWidth=2;fontFamily=Times New Roman;fontSize=15;fillColor=#fad9d5;strokeColor=#ae4132;fontColor=#000000;" parent="iUxV_MsPpX9Iy4lTJz8J-126" vertex="1">
          <mxGeometry x="206.36165605095545" width="41.273885350318466" height="29.11764705882353" as="geometry" />
        </mxCell>
        <mxCell id="iUxV_MsPpX9Iy4lTJz8J-133" value="P&lt;span style=&quot;font-size: 12.5px;&quot;&gt;&lt;sub&gt;7&lt;/sub&gt;&lt;/span&gt;" style="rounded=1;whiteSpace=wrap;html=1;strokeWidth=2;fontFamily=Times New Roman;fontSize=15;fillColor=#fad9d5;strokeColor=#ae4132;fontColor=#000000;" parent="iUxV_MsPpX9Iy4lTJz8J-126" vertex="1">
          <mxGeometry x="247.63165605095543" width="41.273885350318466" height="29.11764705882353" as="geometry" />
        </mxCell>
        <mxCell id="iUxV_MsPpX9Iy4lTJz8J-134" value="P&lt;span style=&quot;font-size: 10.4167px;&quot;&gt;8&lt;/span&gt;" style="rounded=1;whiteSpace=wrap;html=1;strokeWidth=2;fontFamily=Times New Roman;fontSize=15;fillColor=#1ba1e2;strokeColor=#006EAF;fontColor=#000000;" parent="iUxV_MsPpX9Iy4lTJz8J-126" vertex="1">
          <mxGeometry x="288.90165605095535" width="41.273885350318466" height="29.11764705882353" as="geometry" />
        </mxCell>
        <mxCell id="iUxV_MsPpX9Iy4lTJz8J-135" value="P&lt;span style=&quot;font-size: 10.4167px;&quot;&gt;9&lt;/span&gt;" style="rounded=1;whiteSpace=wrap;html=1;strokeWidth=2;fontFamily=Times New Roman;fontSize=15;fillColor=#d80073;fontColor=#000000;strokeColor=#A50040;" parent="iUxV_MsPpX9Iy4lTJz8J-126" vertex="1">
          <mxGeometry x="330.1716560509554" width="41.273885350318466" height="29.11764705882353" as="geometry" />
        </mxCell>
        <mxCell id="zvDqhIaBaBwxAIJumlUE-1" value="P&lt;span style=&quot;font-size: 12.5px;&quot;&gt;&lt;sub&gt;6&lt;/sub&gt;&lt;/span&gt;" style="rounded=1;whiteSpace=wrap;html=1;strokeWidth=2;fontFamily=Times New Roman;fontSize=15;fillColor=#fad9d5;strokeColor=#ae4132;fontColor=#000000;" vertex="1" parent="iUxV_MsPpX9Iy4lTJz8J-126">
          <mxGeometry x="206.36165605095545" width="41.273885350318466" height="29.11764705882353" as="geometry" />
        </mxCell>
        <mxCell id="iUxV_MsPpX9Iy4lTJz8J-136" value="Passages" style="text;html=1;strokeColor=none;fillColor=none;align=center;verticalAlign=middle;whiteSpace=wrap;rounded=0;labelBorderColor=#FFFFFF;strokeWidth=2;fontFamily=Times New Roman;fontSize=15;fontColor=#000000;" parent="1" vertex="1">
          <mxGeometry x="10" y="230" width="118.53" height="29.12" as="geometry" />
        </mxCell>
        <mxCell id="V7xea_g7vS88OQvYqQGr-2" value="" style="edgeStyle=elbowEdgeStyle;elbow=horizontal;endArrow=classic;html=1;curved=0;rounded=0;endSize=8;startSize=8;entryX=1.046;entryY=0.595;entryDx=0;entryDy=0;entryPerimeter=0;" parent="1" target="iUxV_MsPpX9Iy4lTJz8J-135" edge="1">
          <mxGeometry width="50" height="50" relative="1" as="geometry">
            <mxPoint x="510" y="100" as="sourcePoint" />
            <mxPoint x="560" y="50" as="targetPoint" />
            <Array as="points">
              <mxPoint x="530" y="170" />
            </Array>
          </mxGeometry>
        </mxCell>
      </root>
    </mxGraphModel>
  </diagram>
</mxfile>
